<svg width="182" height="180" fill="none" xmlns="http://www.w3.org/2000/svg"><path fill="#131313" d="M-1352-653H568v5337h-1920z"/><path fill="#0E0E0E" d="M-1352-653H568V427h-1920z"/><path d="M47.48 108.951c-6.883-25.69 8.66-52.175 34.717-59.157 26.057-6.982 52.76 8.184 59.643 33.874 6.884 25.689-8.659 52.175-34.716 59.157-26.056 6.982-52.76-8.184-59.643-33.874z" fill="#45C1D4"/><path d="M114.662 173.076a.775.775 0 00.284 1.059l6.043 3.489a.776.776 0 00.776-1.343l-5.372-3.102 3.101-5.372a.775.775 0 10-1.343-.775l-3.489 6.044zm57.505-97.534c11.304 42.187-14.218 85.7-57.034 97.172l.401 1.498c43.623-11.689 69.662-56.037 58.131-99.072l-1.498.402zM23.792 108.528c.246 1.77.125 3.327-.364 4.673-.513 1.349-1.338 2.441-2.474 3.276l-1.21-1.936a5.082 5.082 0 001.745-2.31c.344-.95.429-2.051.254-3.305-.209-1.499-.72-2.643-1.53-3.431-.816-.814-1.8-1.14-2.956-.979-1.056.147-1.854.622-2.394 1.424-.54.801-.734 1.831-.584 3.087l.272 1.954-1.733.242-.293-2.102a2.63 2.63 0 00-.647-1.413 3.032 3.032 0 00-1.324-.867c-.526-.178-1.096-.223-1.71-.138-.958.134-1.685.586-2.179 1.356-.497.746-.655 1.77-.473 3.073.15 1.081.498 1.959 1.043 2.635.518.654 1.225 1.145 2.122 1.47l-.765 2.061a6.273 6.273 0 01-3.004-2.137c-.796-1.041-1.299-2.311-1.508-3.81-.171-1.229-.111-2.327.18-3.295.263-.988.74-1.794 1.43-2.416.661-.644 1.52-1.039 2.577-1.186a5.147 5.147 0 012.636.309c.824.336 1.487.87 1.99 1.601.186-1.178.667-2.134 1.441-2.869.771-.758 1.735-1.218 2.89-1.379 1.155-.161 2.193.007 3.114.505.921.498 1.678 1.257 2.271 2.276.593 1.02.988 2.23 1.183 3.631zm-7.42-11.895c-1.207-.145-2.2-.615-2.98-1.408-.803-.797-1.367-1.827-1.69-3.09-.344-1.291-.42-2.737-.228-4.339a20.4 20.4 0 01.573-2.892c.27-.992.599-1.865.99-2.618l-1.627-.195c-1.626-.196-2.977.129-4.053.974-1.076.846-1.717 2.118-1.921 3.818a8.436 8.436 0 00.223 3.138c.25 1.03.68 2.132 1.29 3.304l-1.89.748c-.711-1.36-1.204-2.67-1.477-3.927a10.716 10.716 0 01-.221-3.775c.284-2.365 1.187-4.156 2.708-5.372 1.52-1.217 3.476-1.682 5.865-1.395l8.906 1.071c.345.042.613-.001.803-.128.165-.13.28-.354.343-.671l1.995.24c-.008.274-.011.51-.01.71 0 .2-.017.349-.053.444-.1.613-.352 1.057-.76 1.333-.409.276-.824.401-1.245.375l-1.409-.131c1.005.995 1.732 2.22 2.182 3.673.426 1.451.553 2.89.38 4.32-.147 1.231-.54 2.321-1.18 3.27-.66.92-1.468 1.61-2.423 2.07a5.791 5.791 0 01-3.09.453zm3.03-12.72a5.128 5.128 0 00-.923-.748c-.303-.186-.577-.294-.823-.324l-2.809-.337c-.42.799-.772 1.644-1.054 2.535-.28.866-.474 1.755-.583 2.666-.217 1.799-.034 3.295.547 4.49.581 1.194 1.488 1.865 2.72 2.013a4.034 4.034 0 002.099-.31c.66-.295 1.242-.775 1.747-1.439.48-.667.778-1.48.893-2.442.145-1.207.046-2.356-.297-3.447-.341-1.115-.847-2.001-1.518-2.656zm5.288-6.397L6.564 70.623l.9-2.366 7.757 2.95 1.032-2.713-5.442-9.038 1.032-2.714 6.168 10.27L30.3 62.767l-1.058 2.783-10.795 3.779-1.032 2.713 8.175 3.11-.9 2.365zm.815-17.751c-.999-.694-1.656-1.574-1.973-2.64-.337-1.08-.352-2.254-.046-3.522.3-1.302.91-2.615 1.83-3.94a20.318 20.318 0 011.862-2.287c.703-.75 1.403-1.367 2.1-1.849l-1.344-.934c-1.345-.935-2.691-1.28-4.038-1.038-1.347.242-2.509 1.067-3.486 2.473a8.437 8.437 0 00-1.273 2.877c-.261 1.027-.397 2.202-.409 3.523l-2.02-.225c.01-1.535.188-2.922.535-4.16.327-1.254.852-2.4 1.574-3.44 1.359-1.956 2.995-3.115 4.909-3.478 1.913-.362 3.858.143 5.835 1.517l7.367 5.118c.285.198.541.285.769.262.207-.037.413-.181.617-.432l1.65 1.147c-.134.238-.248.446-.341.623-.093.177-.178.3-.255.367-.375.495-.807.77-1.296.822-.49.052-.915-.032-1.276-.252l-1.182-.776c.42 1.35.49 2.773.207 4.268-.304 1.48-.867 2.812-1.688 3.994-.708 1.019-1.566 1.797-2.574 2.335-1.015.504-2.052.735-3.111.694a5.793 5.793 0 01-2.943-1.047zm8.634-9.819a5.126 5.126 0 00-.464-1.093c-.18-.306-.372-.53-.576-.671l-2.323-1.614a15.402 15.402 0 00-2.119 1.745 14.2 14.2 0 00-1.764 2.083c-1.034 1.487-1.573 2.895-1.62 4.223-.046 1.327.44 2.345 1.46 3.053a4.04 4.04 0 002 .71c.721.047 1.46-.103 2.217-.454.737-.364 1.381-.944 1.934-1.738.693-.999 1.144-2.06 1.351-3.185.222-1.146.19-2.165-.096-3.059zm12.24-6.84c-1.337 1.185-2.701 1.947-4.093 2.285-1.408.32-2.774.237-4.098-.247l.943-2.079a5.081 5.081 0 002.89.174c.98-.24 1.945-.78 2.892-1.618 1.133-1.004 1.803-2.063 2.01-3.175.227-1.129-.047-2.13-.82-3.002-.708-.799-1.545-1.201-2.512-1.207-.966-.005-1.931.403-2.895 1.223l-1.476 1.31-1.16-1.31 1.587-1.406c.409-.362.682-.803.818-1.322a3.033 3.033 0 00-.01-1.583 3.693 3.693 0 00-.832-1.5c-.642-.724-1.42-1.079-2.335-1.064-.897 0-1.837.435-2.821 1.307-.817.724-1.356 1.5-1.617 2.328-.259.793-.275 1.653-.05 2.581l-2.14.504a6.278 6.278 0 01.117-3.684c.426-1.24 1.206-2.362 2.338-3.366.929-.823 1.877-1.381 2.843-1.674.97-.329 1.904-.378 2.804-.148.902.195 1.707.692 2.415 1.49a5.152 5.152 0 011.202 2.367c.176.872.099 1.72-.232 2.543 1.084-.497 2.147-.626 3.187-.388 1.059.222 1.975.77 2.748 1.642.774.873 1.209 1.83 1.304 2.874.095 1.042-.117 2.093-.638 3.151-.521 1.059-1.31 2.057-2.37 2.995zm3.36-10.832c-.57-1.074-.753-2.157-.547-3.25.194-1.115.718-2.166 1.57-3.153.863-1.02 2.007-1.909 3.43-2.665a20.317 20.317 0 012.702-1.183c.968-.346 1.873-.574 2.714-.683l-.769-1.447c-.768-1.446-1.807-2.369-3.115-2.77-1.309-.4-2.72-.199-4.231.605a8.435 8.435 0 00-2.449 1.975c-.701.795-1.36 1.777-1.975 2.947l-1.693-1.124c.71-1.36 1.503-2.513 2.38-3.456a10.717 10.717 0 012.971-2.338c2.104-1.117 4.09-1.4 5.957-.847 1.867.553 3.366 1.893 4.495 4.018l4.21 7.921c.162.307.35.502.563.586.201.061.45.027.747-.102l.943 1.775c-.23.15-.426.282-.59.397a1.312 1.312 0 01-.394.21c-.56.27-1.069.315-1.528.138-.46-.178-.8-.447-1.02-.808l-.696-1.231c-.243 1.393-.832 2.69-1.768 3.89-.948 1.178-2.057 2.104-3.328 2.78-1.096.582-2.215.882-3.358.899-1.132-.016-2.16-.285-3.083-.806a5.791 5.791 0 01-2.138-2.278zm12.17-4.78c.077-.436.106-.83.086-1.185-.02-.355-.088-.642-.204-.86l-1.327-2.499c-.897.111-1.791.305-2.683.583-.87.266-1.711.614-2.522 1.045-1.6.85-2.723 1.854-3.372 3.014-.648 1.16-.681 2.287-.1 3.382.339.636.823 1.15 1.455 1.546.62.373 1.346.577 2.18.612.82.013 1.66-.208 2.514-.662 1.073-.57 1.96-1.308 2.659-2.214.72-.917 1.159-1.838 1.313-2.763zm13.478-.579l-4.24-16.587-6.707 1.714-.562-2.2 15.867-4.055.562 2.2L73.6 9.7l4.24 16.588-2.453.626zM85.98 24.54l-.607-19.382 2.53-.08.214 6.846 5.022-.158c2.208-.07 3.887.45 5.039 1.555 1.176 1.08 1.793 2.538 1.85 4.373.038 1.19-.177 2.277-.642 3.26a5.613 5.613 0 01-2.123 2.375c-.924.6-2.106.923-3.544.968l-7.738.243zm2.468-2.088l4.873-.153c1.017-.032 1.829-.256 2.436-.672a3.88 3.88 0 001.327-1.643 5.255 5.255 0 00.379-2.172 5.03 5.03 0 00-.474-2.033c-.268-.637-.73-1.132-1.387-1.483-.633-.378-1.507-.549-2.623-.514l-4.799.15.267 8.52zm28.746 5.898c-1.344-.44-2.502-1.093-3.472-1.958a10.16 10.16 0 01-2.243-3.082 10.721 10.721 0 01-.939-3.714 10.599 10.599 0 01.53-3.899c.57-1.745 1.48-3.21 2.728-4.394a9.39 9.39 0 014.376-2.368c1.669-.395 3.412-.295 5.228.298 1.722.563 3.112 1.461 4.171 2.695 1.066 1.21 1.698 2.59 1.896 4.143l-2.578-.02a5.742 5.742 0 00-1.477-2.91c-.742-.843-1.68-1.45-2.812-1.82a6.516 6.516 0 00-3.673-.143c-1.222.306-2.321.912-3.297 1.82-.951.916-1.659 2.082-2.121 3.497-.455 1.391-.561 2.753-.317 4.086.243 1.332.76 2.506 1.55 3.522a6.348 6.348 0 003.038 2.089 6.64 6.64 0 002.438.327c.847-.037 1.619-.202 2.316-.496.728-.31 1.279-.718 1.652-1.222l2.139 1.482c-.615.764-1.428 1.373-2.437 1.827-.978.437-2.052.687-3.221.748-1.137.046-2.296-.123-3.475-.509zm11.144-2.509c.654-1.026 1.506-1.718 2.559-2.077 1.066-.38 2.238-.442 3.517-.187 1.313.248 2.65.806 4.01 1.672a20.326 20.326 0 012.36 1.768c.778.672 1.422 1.347 1.931 2.025l.88-1.381c.88-1.381 1.172-2.74.876-4.076-.296-1.336-1.167-2.464-2.611-3.384a8.434 8.434 0 00-2.925-1.157c-1.037-.22-2.216-.309-3.537-.268l.144-2.026c1.534-.053 2.927.07 4.179.367 1.265.276 2.432.755 3.499 1.435 2.009 1.28 3.233 2.868 3.672 4.766.438 1.897.011 3.861-1.282 5.891l-4.819 7.565c-.187.293-.264.553-.232.78.046.205.198.405.457.6l-1.08 1.694a21.976 21.976 0 00-.637-.317 1.288 1.288 0 01-.376-.24c-.51-.354-.801-.775-.873-1.262-.072-.487-.006-.915.2-1.284l.729-1.213c-1.333.475-2.752.6-4.257.377-1.492-.244-2.845-.753-4.058-1.526-1.047-.666-1.859-1.493-2.437-2.479-.544-.994-.816-2.02-.818-3.08a5.798 5.798 0 01.929-2.983zm10.156 8.235a5.134 5.134 0 001.074-.508c.298-.192.515-.393.648-.602l1.52-2.386a15.451 15.451 0 00-1.829-2.047 14.172 14.172 0 00-2.152-1.68c-1.528-.973-2.956-1.456-4.284-1.45-1.328.008-2.326.535-2.992 1.58a4.023 4.023 0 00-.629 2.027c-.02.723.161 1.456.541 2.199.394.721.999 1.342 1.815 1.862a8.13 8.13 0 003.236 1.223c1.153.176 2.171.103 3.052-.218zm3.413 7.274l14.292-13.05 1.707 1.869-11.764 10.741 19.747-2.054 1.531 1.677-14.32 13.075-1.706-1.868 11.571-10.566-19.402 1.99-1.656-1.814zm21.755-8.575c-1.137-1.246-1.723-2.476-1.755-3.69-.033-1.213.399-2.23 1.297-3.05l1.255 1.375a2.408 2.408 0 00-.822 1.86c.018.756.421 1.564 1.207 2.425.77.843 1.504 1.298 2.204 1.365.716.085 1.393-.112 2.029-.593l1.23 1.347c-.898.82-1.95 1.159-3.155 1.016-1.205-.142-2.369-.828-3.49-2.055zm-6.414 28.016l15.089-8.09-3.272-6.102 2.001-1.073 7.74 14.432-2.001 1.074-3.272-6.101-15.088 8.09-1.197-2.23z" fill="#FCFCFC"/></svg>