<svg width="79" height="43" fill="none" xmlns="http://www.w3.org/2000/svg"><path d="M27.103 26.097c.386-.335.492-.835.698-1.262.311-.637.629-1.278.916-1.918.379-.852.807-1.68 1.168-2.54.414-.99.927-1.939 1.387-2.91.912-1.926 1.808-3.86 2.726-5.782.81-1.696 1.68-3.365 2.45-5.08.785-1.748 1.659-3.448 2.437-5.197.083-.187.18-.368.295-.6.485.884.871 1.769 1.285 2.647.484 1.029 1.042 2.025 1.491 3.069.826 1.918 1.786 3.772 2.653 5.672.771 1.697 1.597 3.369 2.396 5.054.77 1.626 1.538 3.253 2.305 4.881.406.858.822 1.712 1.229 2.57.188.398.375.798.541 1.206a.314.314 0 00.197.197.715.715 0 00.024.241c.419.865.847 1.725 1.231 2.607.54 1.243 1.197 2.43 1.74 3.676.555 1.27 1.201 2.5 1.79 3.758a300.527 300.527 0 002.305 4.816c.227.465.343 1.002.753 1.37v.176H47.141c-.11-.19-.217-.383-.329-.572-.742-1.251-1.489-2.498-2.226-3.752-.762-1.292-1.51-2.594-2.273-3.885-.941-1.593-1.895-3.178-2.832-4.773-.075-.13-.176-.295-.27-.306-.157-.016-.23.174-.31.311-.68 1.18-1.356 2.36-2.052 3.53-.937 1.573-1.923 3.121-2.828 4.718-.904 1.598-1.866 3.146-2.787 4.734h-11.98l.007-.178c.047-.013.123-.012.136-.04.35-.722.696-1.447 1.039-2.176.77-1.624 1.538-3.248 2.305-4.872.412-.87.82-1.743 1.234-2.612.77-1.622 1.565-3.234 2.3-4.872.283-.634.707-1.206.828-1.906z" fill="#45C1D4"/><path d="M59.116 42.576c-.41-.367-.526-.904-.753-1.369a395.297 395.297 0 01-2.305-4.816c-.59-1.258-1.235-2.488-1.79-3.758-.543-1.246-1.2-2.433-1.74-3.676-.384-.884-.812-1.742-1.23-2.607a.718.718 0 01-.025-.242c.379-.218.688-.521 1.023-.799 1.422-1.18 2.85-2.365 4.264-3.555 1.66-1.394 3.304-2.805 4.966-4.194 2-1.67 4.016-3.327 6.02-4.996 1.59-1.325 3.17-2.661 4.755-3.99l4.912-4.109c.226-.188.465-.356.688-.54.09-.072.142-.261.295-.145.153.116-.015.249-.057.338a160.14 160.14 0 01-1.426 2.915c-.688 1.376-1.389 2.745-2.07 4.128-.617 1.249-1.21 2.509-1.822 3.76-.703 1.433-1.415 2.862-2.122 4.294-.805 1.632-1.608 3.266-2.41 4.9a1791.49 1791.49 0 01-2.498 5.05c-.688 1.392-1.395 2.78-2.084 4.175a984.017 984.017 0 00-2.421 4.918c-.68 1.394-1.351 2.792-2.03 4.187-.026.052-.093.085-.14.131zM27.103 26.097c-.122.7-.545 1.272-.828 1.902-.735 1.638-1.531 3.25-2.3 4.872-.414.87-.823 1.741-1.234 2.612-.767 1.624-1.536 3.248-2.305 4.872-.344.726-.69 1.451-1.039 2.175-.014.029-.09.028-.136.04-.353-.393-.543-.891-.737-1.358-.444-1.062-1.015-2.057-1.499-3.098-.654-1.408-1.383-2.78-2.074-4.17-.821-1.652-1.64-3.305-2.456-4.96-.759-1.54-1.507-3.083-2.268-4.62-.76-1.538-1.528-3.06-2.277-4.593-.75-1.533-1.488-3.08-2.24-4.62a679.296 679.296 0 00-2.25-4.559C2.454 8.585 1.445 6.579.445 4.57c-.098-.187-.03-.43-.262-.616.512-.098.72.3.971.508a652.02 652.02 0 016.906 5.773c2.431 2.054 4.879 4.087 7.315 6.136 2.34 1.966 4.7 3.916 7.042 5.883a857.198 857.198 0 004.59 3.825c.021.018.063.013.095.018z" fill="#fff"/></svg>